<svg width="80" height="81" viewBox="0 0 80 81" fill="none" xmlns="http://www.w3.org/2000/svg">
<g id="636e11a54a3e3cb45475b7cb_icon-69.svg" clip-path="url(#clip0_20_948)">
<g id="Group" opacity="0.96">
<path id="Vector" d="M40 80.0601C62.0914 80.0601 80 62.1514 80 40.0601C80 17.9687 62.0914 0.0600586 40 0.0600586C17.9086 0.0600586 0 17.9687 0 40.0601C0 62.1514 17.9086 80.0601 40 80.0601Z" fill="white"/>
<path id="Vector_2" d="M61.5716 26.1072H48.7762C48.6256 26.1072 48.5034 26.2293 48.5034 26.3799V34.598C48.5034 34.7486 48.6256 34.8707 48.7762 34.8707H56.8701C57.0841 34.8707 57.2897 34.9546 57.4426 35.1044L59.2553 36.8798C59.428 37.0489 59.7189 36.9265 59.7189 36.6849V35.689C59.7189 35.2371 60.0853 34.8707 60.5373 34.8707H61.5716C61.7222 34.8707 61.8443 34.7486 61.8443 34.598V26.38C61.8443 26.2293 61.7222 26.1072 61.5716 26.1072Z" fill="white" stroke="#1A976A" stroke-width="0.545546"/>
<path id="Vector_3" d="M59.3306 30.9316H51.2421" stroke="#1A976A" stroke-width="0.545546" stroke-linecap="round"/>
<path id="Vector_4" d="M59.3306 32.8533H52.6472" stroke="#1A976A" stroke-width="0.545546" stroke-linecap="round"/>
<path id="Vector_5" d="M17.2102 57.4734C13.7532 58.1648 12.825 61.6666 12.793 63.3311H42.5573V59.6325C41.8408 58.8343 39.937 56.8972 38.336 56.8972C36.5114 56.8972 32.1902 55.6489 32.5744 52.576C33.8227 51.0396 37.8558 47.2946 35.3591 43.0695C36.4154 39.4205 33.5346 34.3311 28.1572 34.9072C25.4684 35.2913 21.5314 36.7317 21.6274 43.0695C20.379 45.9503 20.7631 47.7748 24.5082 52.576C24.6042 55.841 21.7234 56.5131 17.2102 57.4734Z" fill="#1A976A"/>
<path id="Vector_6" d="M42.0493 54.8809C42.8176 54.5928 45.295 54.1894 49.0592 54.8809C49.6345 56.8531 44.1649 59.0002 42.5541 59.6294L42.4805 63.3312H64.8076C64.3275 59.9703 61.4467 59.9702 57.5096 58.8179C54.3599 57.8961 54.2767 55.8091 54.6288 54.8809H61.4467C60.9345 54.5928 59.6606 53.0371 58.6619 49.1193C58.95 43.3577 55.8772 39.6126 51.652 39.4206C47.5228 39.2285 44.45 44.0299 44.45 48.5431C44.5268 49.9259 42.8816 53.3445 42.0493 54.8809Z" fill="#FBAE3B"/>
<path id="Vector_7" d="M30.078 12.5229H54.1476C54.4309 12.5229 54.6607 12.7526 54.6607 13.0361V28.4951C54.6607 28.7785 54.4309 29.0082 54.1476 29.0082H38.9221C38.5194 29.0082 38.1328 29.1661 37.845 29.4478L34.4351 32.7875C34.1103 33.1056 33.5629 32.8755 33.5629 32.4209V30.5476C33.5629 29.6974 32.8737 29.0082 32.0236 29.0082H30.078C29.7946 29.0082 29.5649 28.7785 29.5649 28.4951V13.0361C29.5649 12.7526 29.7946 12.5229 30.078 12.5229Z" fill="white" stroke="#FBAE3B" stroke-width="1.02624"/>
<path id="Vector_8" d="M34.2944 17.6206H49.5098" stroke="#FBAE3B" stroke-width="1.02624" stroke-linecap="round"/>
<path id="Vector_9" d="M34.2944 22.2009H46.8665" stroke="#FBAE3B" stroke-width="1.02624" stroke-linecap="round"/>
</g>
</g>
<defs>
<clipPath id="clip0_20_948">
<rect width="80" height="80" fill="white" transform="translate(0 0.0600586)"/>
</clipPath>
</defs>
</svg>
