<svg width="320" height="320" viewBox="0 0 320 320" fill="none" xmlns="http://www.w3.org/2000/svg">
  <g clip-path="url(#clip0_67_524)">
    <path
      d="M180.779 180.685L183.957 245.789C184.233 251.324 185.181 256.676 186.802 261.72C190.685 273.708 198.297 283.92 208.815 291.229C218.935 298.293 231.256 302.176 243.515 302.176C254.4 302.176 270.389 299.149 284.819 284.746C299.801 269.732 302.522 253.036 302.186 241.66V241.63V241.599V241.477C302.154 240.989 302.154 240.467 302.094 239.825C302.062 239.245 302.002 238.634 301.972 238.052C301.94 237.686 301.91 237.348 301.88 236.982C301.42 232.7 300.503 228.48 299.127 224.384L299.097 224.292V224.26V224.23C294.053 209.155 283.72 197.016 270.022 190.073C268.738 189.432 267.363 188.79 265.955 188.208C264.734 187.718 263.51 187.26 262.317 186.863L262.195 186.833L262.073 186.771C261.277 186.497 260.422 186.251 259.566 186.007C258.862 185.823 258.098 185.609 257.273 185.425C253.604 184.54 249.752 184.02 245.87 183.836L241.925 183.652L180.779 180.685ZM163.443 163.348L242.721 167.201L246.663 167.384C251.677 167.629 256.477 168.332 261.063 169.402C262.073 169.647 263.051 169.892 264.03 170.167C265.161 170.473 266.261 170.809 267.363 171.176C267.393 171.176 267.393 171.176 267.423 171.207C269.074 171.757 270.663 172.338 272.255 173.011C274.058 173.744 275.801 174.54 277.512 175.396C295.613 184.57 308.605 200.623 314.781 219.032C314.781 219.062 314.813 219.093 314.813 219.124C316.554 224.322 317.716 229.704 318.327 235.177C318.389 235.637 318.419 236.065 318.449 236.523C318.511 237.288 318.573 238.052 318.633 238.816C318.665 239.551 318.725 240.285 318.725 241.019C318.725 241.079 318.725 241.111 318.725 241.171C319.307 260.528 312.458 280.403 296.498 296.366C281.151 311.718 262.165 318.628 243.545 318.628C212.056 318.628 181.573 298.873 171.178 266.765C169.161 260.498 167.877 253.739 167.54 246.584L163.443 163.348Z"
      fill="#1A976A" />
    <path
      d="M136.809 120.278L155.843 131.994C134.837 148.724 111.795 155.789 88.348 155.789C63.2732 155.789 41.2913 149.989 23.7221 133.005C10.5851 119.537 0.530762 99.18 0.530762 79.7935C0.530762 57.9604 8.06923 37.2846 23.8628 22.188C43.2593 3.64763 66.3907 -1.44488 87.0326 1.13215C113.849 5.52944 135.178 17.6547 148.437 48.2993L130.834 49.6574C123.144 38.3996 123.144 38.3996 123.144 38.3996C110.671 24.9207 96.9591 18.4196 80.2852 17.2909C61.7195 17.2909 48.6186 22.7935 34.4667 35.7735C23.6777 48.7536 16.0831 64.5579 17.2322 79.7935C18.073 90.9395 23.1967 109.422 35.4475 121.133C48.6876 132.631 63.7799 138.687 82.4094 138.687C99.5695 138.687 120.981 132.551 136.809 120.278Z"
      fill="#1A976A" />
    <path
      d="M179.674 16.3807V76.0331V138.574C210.99 135.606 253.705 136.596 270.073 126.79C293.115 116.732 302.245 90.2642 302.245 73.6614C302.245 57.1241 291.891 36.1476 273.165 24.401C256.545 14.0323 205.658 16.3807 179.674 16.3807ZM187.488 0.589259C228.515 0.720508 261.431 -4.34014 284.797 13.0081C314.38 34.9749 318.756 57.1573 318.756 79.3383C317.536 100.648 306.525 123.902 281.381 139.652C258.449 154.024 216.973 152.959 188.966 154.617C160.959 156.275 163.503 155.676 163.503 155.676V0.589259H187.488Z"
      fill="#1A976A" />
    <path fill-rule="evenodd" clip-rule="evenodd"
      d="M76.5667 167.201L155.843 163.348L151.747 246.584C151.41 253.739 150.126 260.498 148.108 266.765C137.713 298.873 107.232 318.628 75.7412 318.628C57.122 318.628 38.1359 311.718 22.7881 296.366C6.82885 280.403 -0.0195849 260.528 0.561309 241.171V241.019C0.561309 240.529 0.588486 240.039 0.615663 239.551C0.629249 239.306 0.642838 239.062 0.653028 238.816L0.83647 236.523C0.867043 236.065 0.897616 235.637 0.958763 235.177C1.57023 229.704 2.73202 224.322 4.47469 219.124C4.47469 219.108 4.48235 219.093 4.48999 219.078C4.49763 219.062 4.50528 219.047 4.50528 219.032C10.6811 200.623 23.6748 184.57 41.7742 175.396C43.4863 174.54 45.229 173.744 47.0328 173.011C48.6226 172.338 50.2125 171.757 51.8634 171.207C51.894 171.176 51.894 171.176 51.9246 171.176C53.0251 170.809 54.1259 170.473 55.257 170.167C56.2354 169.892 57.2138 169.647 58.2227 169.402C62.8086 168.332 67.6086 167.629 72.6227 167.384L76.5667 167.201ZM26.6615 281.786C22.3405 276.441 20.9321 273.899 17.7275 267.773C18.1538 267.915 18.6066 268.07 19.0846 268.235C28.0464 271.32 45.9043 277.467 64.5004 253.06C38.4874 259.184 18.0863 260.746 32.1606 232.964C14.9995 206.487 45.1901 193.979 62.7342 216.098C55.8521 177.081 67.3305 176.316 85.9284 188.793C114.001 167.896 119.591 194.91 105.818 214.803C144.601 196.967 142.541 217.86 132.356 235.222C153.01 266.587 112.811 266.175 105.161 258.525C123.52 284.535 111.029 302.123 96.494 287.588C80.4261 302.126 72.1472 296.907 66.7929 283.902C63.9173 272.358 67.4159 266.942 70.5189 262.137C71.7983 260.157 73.0108 258.279 73.681 256.121C67.5593 268.873 51.7563 279.947 26.6615 281.786ZM84.9251 232.923C85.4367 227.436 86.1471 215.304 84.8952 210.679C82.6076 221.803 83.9619 230.144 84.9251 232.923ZM82.1419 235.612C76.6404 235.946 64.4921 236.263 59.9097 234.863C71.1021 232.937 79.3947 234.56 82.1419 235.612ZM87.1306 235.202C92.6319 234.868 104.78 234.552 109.363 235.952C98.1702 237.879 89.8778 236.254 87.1306 235.202ZM84.3505 237.891C83.8388 243.379 83.1285 255.511 84.3804 260.136C86.6679 249.012 85.3137 240.672 84.3505 237.891Z"
      fill="#1A976A" />
  </g>
  <defs>
    <clipPath id="clip0_67_524">
      <rect width="320" height="320" fill="white" />
    </clipPath>
  </defs>
</svg>