<svg width="89" height="89" viewBox="0 0 89 89" fill="none" xmlns="http://www.w3.org/2000/svg">
<g id="636e11a49b96f709a3cba44a_icon-42.svg" clip-path="url(#clip0_20_1095)">
<path id="Vector" d="M44.6599 88.0596C68.9604 88.0596 88.6599 68.3601 88.6599 44.0596C88.6599 19.759 68.9604 0.0595703 44.6599 0.0595703C20.3594 0.0595703 0.659912 19.759 0.659912 44.0596C0.659912 68.3601 20.3594 88.0596 44.6599 88.0596Z" fill="white"/>
<path id="Vector_2" fill-rule="evenodd" clip-rule="evenodd" d="M31.9121 19.9453C31.9121 18.8348 32.8124 17.9346 33.9229 17.9346H43.4029C44.5134 17.9346 45.4136 18.8348 45.4136 19.9453V25.211C46.158 25.4769 46.8828 25.7843 47.5849 26.1304L51.3919 22.3234C52.1771 21.5382 53.4503 21.5382 54.2355 22.3234L60.9389 29.0268C61.7242 29.812 61.7242 31.0852 60.9389 31.8704L57.0867 35.7226C57.4539 36.4858 57.7754 37.2749 58.048 38.0867H63.6552C64.7656 38.0867 65.6659 38.9869 65.6659 40.0975V49.5774C65.6659 50.6879 64.7656 51.5881 63.6552 51.5881H57.9279C57.5933 52.5285 57.1924 53.4374 56.731 54.3094L60.6775 58.2558C61.4627 59.041 61.4627 60.3141 60.6775 61.0995L53.9741 67.8028C53.1889 68.588 51.9158 68.588 51.1305 67.8028L46.8633 63.5356C46.3893 63.7468 45.9057 63.9407 45.4136 64.1165V69.9297C45.4136 71.0403 44.5134 71.9405 43.4029 71.9405H33.9229C32.8124 71.9405 31.9121 71.0403 31.9121 69.9297V64.2517C31.2555 64.032 30.6134 63.7802 29.988 63.4982L25.9348 67.5514C25.1496 68.3367 23.8765 68.3367 23.0912 67.5514L16.3879 60.848C15.6027 60.0628 15.6027 58.7897 16.3879 58.0044L20.1621 54.2302C19.7508 53.4448 19.3886 52.6296 19.0795 51.7888H13.6706C12.5602 51.7888 11.6599 50.8885 11.6599 49.7781V40.2981C11.6599 39.1875 12.5602 38.2873 13.6706 38.2873H18.8206C19.177 37.1882 19.6232 36.1294 20.1504 35.1197L16.6506 31.6199C15.8653 30.8347 15.8653 29.5615 16.6506 28.7763L23.354 22.0729C24.1392 21.2876 25.4123 21.2876 26.1975 22.0729L29.9645 25.84C30.5974 25.5536 31.2472 25.2983 31.9121 25.0759V19.9453ZM28.1996 36.3212L30.1249 34.3959C32.351 32.585 35.1774 31.4836 38.2595 31.4361H38.6754C45.8858 31.5472 51.6967 37.4268 51.6967 44.6638C51.6967 51.9702 45.7737 57.8931 38.4674 57.8931C31.1611 57.8931 25.238 51.9702 25.238 44.6638C25.238 41.501 26.348 38.5973 28.1996 36.3212Z" fill="#1A976A"/>
<path id="Vector_3" d="M66.6599 11.0596H37.7849V77.0596H66.6599V11.0596Z" fill="white"/>
<path id="Vector_4" d="M36.9624 48.7505H55.9453L67.67 57.1251M52.8187 39.3706H57.1736L67.67 31.1074" stroke="#1A976A" stroke-width="1.1"/>
<path id="Vector_5" d="M51.8959 28.7115C49.9215 28.7115 48.3209 27.1109 48.3209 25.1365C48.3209 23.1621 49.9215 21.5615 51.8959 21.5615C53.8704 21.5615 55.4709 23.1621 55.4709 25.1365C55.4709 27.1109 53.8704 28.7115 51.8959 28.7115Z" stroke="#FBAE3B" stroke-width="1.1"/>
<path id="Vector_6" d="M59.1232 19.7843C57.1488 19.7843 55.5482 18.1837 55.5482 16.2093C55.5482 14.2349 57.1488 12.6343 59.1232 12.6343C61.0977 12.6343 62.6982 14.2349 62.6982 16.2093C62.6982 18.1837 61.0977 19.7843 59.1232 19.7843Z" stroke="#FBAE3B" stroke-width="1.1"/>
<path id="Vector_7" d="M70.4636 32.8365C68.4892 32.8365 66.8886 31.2359 66.8886 29.2615C66.8886 27.2871 68.4892 25.6865 70.4636 25.6865C72.438 25.6865 74.0386 27.2871 74.0386 29.2615C74.0386 31.2359 72.438 32.8365 70.4636 32.8365Z" stroke="#FBAE3B" stroke-width="1.1"/>
<path id="Vector_8" d="M62.2136 47.7735C60.2392 47.7735 58.6386 46.173 58.6386 44.1985C58.6386 42.2241 60.2392 40.6235 62.2136 40.6235C64.188 40.6235 65.7886 42.2241 65.7886 44.1985C65.7886 46.173 64.188 47.7735 62.2136 47.7735Z" stroke="#FBAE3B" stroke-width="1.1"/>
<path id="Vector_9" d="M70.4636 62.7101C68.4892 62.7101 66.8886 61.1095 66.8886 59.1351C66.8886 57.1606 68.4892 55.5601 70.4636 55.5601C72.438 55.5601 74.0386 57.1606 74.0386 59.1351C74.0386 61.1095 72.438 62.7101 70.4636 62.7101Z" stroke="#FBAE3B" stroke-width="1.1"/>
<path id="Vector_10" d="M51.8959 66.8351C49.9215 66.8351 48.3209 65.2345 48.3209 63.2601C48.3209 61.2856 49.9215 59.6851 51.8959 59.6851C53.8704 59.6851 55.4709 61.2856 55.4709 63.2601C55.4709 65.2345 53.8704 66.8351 51.8959 66.8351Z" stroke="#FBAE3B" stroke-width="1.1"/>
<path id="Vector_11" d="M59.2744 75.485C57.2999 75.485 55.6994 73.8844 55.6994 71.91C55.6994 69.9355 57.2999 68.335 59.2744 68.335C61.2488 68.335 62.8494 69.9355 62.8494 71.91C62.8494 73.8844 61.2488 75.485 59.2744 75.485Z" stroke="#FBAE3B" stroke-width="1.1"/>
<path id="Vector_12" d="M32.5684 38.6548H30.8496V40.3735H32.5684V38.6548Z" fill="#1A976A"/>
<path id="Vector_13" d="M48.6683 38.6548H34.4814V40.3735H48.6683V38.6548Z" fill="#1A976A"/>
<path id="Vector_14" d="M34.8364 47.9639H33.1177V49.6826H34.8364V47.9639Z" fill="#1A976A"/>
<path id="Vector_15" d="M58.7234 43.3394H42.6353V45.0581H58.7234V43.3394Z" fill="#1A976A"/>
<path id="Vector_16" d="M40.0791 43.3394H29.8562V45.0581H40.0791V43.3394Z" fill="#1A976A"/>
<path id="Vector_17" d="M36.9282 34.8878H41.4857L43.6389 32.7345V27.4451L45.4473 25.6367H48.0918" stroke="#1A976A" stroke-width="1.1"/>
<path id="Vector_18" d="M36.9282 53.5088H41.4857L43.6389 55.6621V60.9514L45.4473 62.7598H48.0918" stroke="#1A976A" stroke-width="1.1"/>
<path id="Vector_19" d="M46.6777 35.016H54.8292L59.0725 30.7725V19.8291" stroke="#1A976A" stroke-width="1.1"/>
<path id="Vector_20" d="M46.6777 53.5088H54.8292L59.0725 57.7522V68.6957" stroke="#1A976A" stroke-width="1.1"/>
</g>
<defs>
<clipPath id="clip0_20_1095">
<rect width="88" height="88" fill="white" transform="translate(0.659912 0.0595703)"/>
</clipPath>
</defs>
</svg>
