<svg width="89" height="89" viewBox="0 0 89 89" fill="none" xmlns="http://www.w3.org/2000/svg">
<g id="636e119ad029f8004a5dcc4d_icon-5.svg" clip-path="url(#clip0_20_1049)">
<path id="Vector" d="M44.6599 88.0596C68.9604 88.0596 88.6599 68.3601 88.6599 44.0596C88.6599 19.7591 68.9604 0.0595703 44.6599 0.0595703C20.3594 0.0595703 0.659912 19.7591 0.659912 44.0596C0.659912 68.3601 20.3594 88.0596 44.6599 88.0596Z" fill="white"/>
<path id="Vector_2" d="M21.2596 20.9048C35.1348 24.2084 42.6414 18.7941 44.6603 15.6741C46.6792 18.7941 54.1856 24.2084 68.0608 20.9048C68.281 40.2861 68.1526 48.435 68.0608 50.0868C67.1431 54.7669 61.1783 66.4949 44.6603 75.9653C28.1422 66.4949 22.1772 54.7669 21.2596 50.0868C21.1678 48.435 21.0393 40.2861 21.2596 20.9048Z" stroke="#1A976A" stroke-width="2.20242" stroke-linecap="round" stroke-linejoin="round"/>
<path id="Vector_3" d="M30.0699 26.1355H25.665V50.0868C26.7663 53.7575 31.8602 62.2327 44.1938 70.6018" stroke="#FBAE3B" stroke-width="2.20242" stroke-linecap="round" stroke-linejoin="round"/>
<path id="Vector_4" d="M45.4617 21.9832C48.3982 24.0021 56.4984 27.4019 64.2068 25.8603C64.2068 42.1581 64.2068 48.0679 64.2068 48.9857" stroke="#FBAE3B" stroke-width="2.20242" stroke-linecap="round" stroke-linejoin="round"/>
<path id="Vector_5" fill-rule="evenodd" clip-rule="evenodd" d="M39.5843 30.265C39.3817 30.5762 39.2078 30.9061 39.065 31.2508C38.7606 31.9856 38.604 32.7732 38.604 33.5686V40.4613H41.633V33.5686C41.6331 33.1709 41.7107 32.7771 41.8628 32.4097C42.015 32.0423 42.2381 31.7085 42.5193 31.4273C42.8005 31.1461 43.1343 30.923 43.5017 30.7708C43.8691 30.6186 44.2629 30.5403 44.6606 30.5403C45.0583 30.5403 45.4521 30.6186 45.8195 30.7708C46.187 30.923 46.5208 31.1461 46.802 31.4273C47.0832 31.7085 47.3062 32.0423 47.4585 32.4097C47.6106 32.7771 47.689 33.1709 47.689 33.5686H47.6874V40.4613H50.7164V33.5687C50.7164 32.7732 50.5607 31.9856 50.2563 31.2508C50.1134 30.9061 49.9395 30.5762 49.737 30.265C49.5077 29.9128 49.2419 29.5845 48.9433 29.286C48.3809 28.7235 47.7132 28.2774 46.9784 27.973C46.2436 27.6686 45.456 27.512 44.6606 27.512C43.8653 27.512 43.0777 27.6686 42.3429 27.973C41.6081 28.2774 40.9403 28.7235 40.3779 29.286C40.0793 29.5845 39.8136 29.9128 39.5843 30.265Z" fill="#1A976A"/>
<path id="Vector_6" fill-rule="evenodd" clip-rule="evenodd" d="M36.809 41.6365C36.2008 41.6365 35.7078 42.1295 35.7078 42.7377V55.3214C35.7078 55.9297 36.2008 56.4227 36.809 56.4227H52.8385C53.4468 56.4227 53.9398 55.9297 53.9398 55.3215V42.7377C53.9398 42.1295 53.4467 41.6365 52.8385 41.6365H36.809ZM45.5925 47.9365C46.1373 47.6164 46.503 47.0244 46.503 46.3468C46.503 45.3294 45.6782 44.5046 44.6607 44.5046C43.6433 44.5046 42.8184 45.3294 42.8184 46.3468C42.8184 47.0272 43.1871 47.6214 43.7357 47.9404L43.241 52.3818H46.084L45.5925 47.9365Z" fill="#1A976A"/>
</g>
<defs>
<clipPath id="clip0_20_1049">
<rect width="88" height="88" fill="white" transform="translate(0.659912 0.0595703)"/>
</clipPath>
</defs>
</svg>
