<svg width="89" height="89" viewBox="0 0 89 89" fill="none" xmlns="http://www.w3.org/2000/svg">
<g id="636e11a40ab43eedfe7cf853_icon-54.svg" clip-path="url(#clip0_20_1062)">
<path id="Vector" d="M44.98 88.0596C69.2805 88.0596 88.98 68.3601 88.98 44.0596C88.98 19.759 69.2805 0.0595703 44.98 0.0595703C20.6795 0.0595703 0.97998 19.759 0.97998 44.0596C0.97998 68.3601 20.6795 88.0596 44.98 88.0596Z" fill="white"/>
<g id="Mask group">
<mask id="mask0_20_1062" style="mask-type:luminance" maskUnits="userSpaceOnUse" x="25" y="19" width="40" height="32">
<g id="Group">
<path id="Vector_2" d="M62.692 19.542H27.0544C26.0824 19.542 25.2944 20.33 25.2944 21.302V48.3403C25.2944 49.3123 26.0824 50.1003 27.0544 50.1003H62.692C63.664 50.1003 64.452 49.3123 64.452 48.3403V21.302C64.452 20.33 63.664 19.542 62.692 19.542Z" fill="white"/>
</g>
</mask>
<g mask="url(#mask0_20_1062)">
<path id="Vector_3" d="M62.692 19.542H27.0544C26.0824 19.542 25.2944 20.33 25.2944 21.302V48.3403C25.2944 49.3123 26.0824 50.1003 27.0544 50.1003H62.692C63.664 50.1003 64.452 49.3123 64.452 48.3403V21.302C64.452 20.33 63.664 19.542 62.692 19.542Z" stroke="#1A976A" stroke-width="5.28"/>
</g>
</g>
<path id="Vector_4" d="M31.312 28.0222H11.3889C10.4169 28.0222 9.62891 28.8102 9.62891 29.7822V55.772C9.62891 56.744 10.4169 57.532 11.3889 57.532H31.312C32.284 57.532 33.072 56.744 33.072 55.772V29.7822C33.072 28.8102 32.284 28.0222 31.312 28.0222Z" fill="#1A976A" stroke="white" stroke-width="1.76"/>
<path id="Vector_5" d="M30.2591 30.8159H12.1392V54.9248H30.2591V30.8159Z" fill="white"/>
<path id="Vector_6" d="M17.0703 42.5651L19.9099 45.4046L25.925 39.3894" stroke="#FBAE3B" stroke-width="0.88"/>
<path id="Vector_7" d="M37.085 34.8809L42.2704 40.0664L53.7994 28.5376" stroke="#FBAE3B" stroke-width="1.76"/>
<path id="Vector_8" d="M78.5706 27.8665H67.7164C67.2304 27.8665 66.8364 28.2604 66.8364 28.7465V49.2204C66.8364 49.7064 67.2304 50.1004 67.7164 50.1004H78.5706C79.0566 50.1004 79.4506 49.7064 79.4506 49.2204V28.7465C79.4506 28.2604 79.0566 27.8665 78.5706 27.8665Z" fill="#1A976A"/>
<path id="Vector_9" d="M77.4425 29.8477H68.917V46.2765H77.4425V29.8477Z" fill="white"/>
<path id="Vector_10" d="M70.5947 38.2414L72.1987 39.8454L75.7649 36.2793" stroke="#FBAE3B" stroke-width="0.544407"/>
<path id="Vector_11" d="M73.1433 49.1832C73.6932 49.1832 74.1391 48.7374 74.1391 48.1875C74.1391 47.6375 73.6932 47.1917 73.1433 47.1917C72.5933 47.1917 72.1475 47.6375 72.1475 48.1875C72.1475 48.7374 72.5933 49.1832 73.1433 49.1832Z" fill="white"/>
<path id="Vector_12" d="M63.3811 52.4495H25.6103C24.8101 52.4495 24.0951 52.9893 23.8923 53.7634L20.5887 66.371C20.2964 67.4865 21.138 68.5771 22.2912 68.5771H67.1506C68.3292 68.5771 69.1747 67.4413 68.8366 66.3122L65.0611 53.7046C64.8381 52.9597 64.1586 52.4495 63.3811 52.4495Z" fill="#1A976A"/>
<path id="Vector_13" d="M50.8865 59.9526H38.7261L38.0361 63.1437H51.5765L50.8865 59.9526Z" fill="#FBAE3B"/>
</g>
<defs>
<clipPath id="clip0_20_1062">
<rect width="88" height="88" fill="white" transform="translate(0.97998 0.0595703)"/>
</clipPath>
</defs>
</svg>
